<svg xmlns="http://www.w3.org/2000/svg" width="651" height="427" viewBox="0 0 651 427" version="1.1"><path d="M 170.505 254.737 C 166.247 255.813, 160.338 260.963, 157.611 265.973 C 150.366 279.285, 154.907 296.831, 167.224 303.114 C 180.830 310.055, 196.870 303.376, 200.008 289.463 L 200.789 286 195.587 286 C 190.458 286, 190.360 286.057, 188.576 290.100 C 185.482 297.113, 175.931 299.102, 170.382 293.889 C 162.749 286.718, 163.717 268.783, 171.967 264.517 C 176.588 262.128, 182.334 262.569, 185.923 265.589 C 187.615 267.013, 189 268.813, 189 269.589 C 189 270.633, 190.432 271, 194.500 271 C 200.907 271, 201.426 269.851, 197.745 263.826 C 193.524 256.917, 187.464 253.922, 178.101 254.116 C 175.020 254.180, 171.602 254.459, 170.505 254.737 M 288.958 254.696 C 284.401 255.407, 280.933 259.077, 280.291 263.869 L 279.706 268.227 275.103 267.706 C 269.868 267.115, 265.345 268.640, 262.142 272.078 L 260 274.377 260 271.154 C 260 268.196, 259.775 267.969, 257.250 268.384 C 255.738 268.632, 253.477 268.873, 252.227 268.918 L 249.954 269 250.227 286.750 L 250.500 304.500 255.120 304.799 L 259.739 305.099 260.240 294.299 C 260.516 288.360, 261.079 282.696, 261.492 281.713 C 262.491 279.333, 267.174 277, 270.950 277 C 272.628 277, 274 276.550, 274 276 C 274 275.450, 275.350 275, 277 275 L 280 275 280 290 L 280 305 285 305 L 290 305 290 290 L 290 275 293.500 275 C 296.833 275, 297 274.833, 297 271.500 C 297 268.167, 296.833 268, 293.500 268 C 290.796 268, 290 267.590, 290 266.200 C 290 263.736, 291.942 262, 294.700 262 C 296.648 262, 297 261.481, 297 258.607 C 297 256.435, 296.431 254.995, 295.418 254.607 C 293.811 253.990, 293.452 253.995, 288.958 254.696 M 364 279.448 L 364 305 381.500 305 L 399 305 399 300 L 399 295 387.021 295 L 375.041 295 374.771 274.750 L 374.500 254.500 369.250 254.198 L 364 253.895 364 279.448 M 405 258.445 L 405 263 410.057 263 L 415.115 263 414.807 258.750 L 414.500 254.500 409.750 254.195 L 405 253.890 405 258.445 M 439.001 268.072 C 437.626 268.649, 435.488 270.072, 434.251 271.234 L 432 273.349 432 270.620 C 432 267.988, 431.831 267.901, 427.250 268.195 L 422.500 268.500 422.500 286.500 L 422.500 304.500 427.750 304.802 L 433 305.105 433 292.775 C 433 278.123, 433.878 276, 439.934 276 C 445.679 276, 446.268 277.377, 446.798 292.051 L 447.265 305 452.133 305 L 457 305 456.923 292.250 C 456.836 277.866, 455.657 272.580, 451.911 269.783 C 448.810 267.468, 442.452 266.625, 439.001 268.072 M 476.037 268.174 C 471.251 269.547, 467.276 272.571, 465.316 276.329 C 457.614 291.100, 467.324 307.278, 482.926 305.668 C 488.939 305.048, 492.344 303.014, 495.750 298.010 C 498.803 293.524, 498.625 293, 494.045 293 C 491.161 293, 489.415 293.676, 487.591 295.500 C 482.682 300.409, 473 297.546, 473 291.186 C 473 289.055, 473.313 289, 485.500 289 L 498 289 497.996 284.250 C 497.990 276.326, 493.065 270.045, 485.307 268.069 C 480.518 266.848, 480.664 266.846, 476.037 268.174 M 216.450 269.407 C 206.957 273.542, 203.439 286.891, 209.160 297.071 C 215.230 307.872, 233.524 308.205, 240.759 297.647 C 247.007 288.528, 243.039 273.421, 233.329 269.364 C 229.214 267.645, 220.445 267.667, 216.450 269.407 M 301 281.480 C 301 297.451, 302.271 301.952, 307.479 304.423 C 313.334 307.201, 319.887 306.184, 323.904 301.873 L 326 299.623 326 302.311 C 326 304.831, 326.283 305, 330.500 305 L 335 305 335 286.500 L 335 268 330 268 L 325 268 325 280.389 C 325 290.734, 324.711 293.120, 323.250 294.847 C 320.617 297.958, 316.827 298.489, 313.937 296.152 C 311.615 294.274, 311.485 293.566, 311.171 281.091 L 310.841 268 305.921 268 L 301 268 301 281.480 M 405 286.445 L 405 305 410.023 305 L 415.045 305 414.773 286.750 L 414.500 268.500 409.750 268.195 L 405 267.890 405 286.445 M 220.251 276.537 C 217.585 278.404, 215.616 285.140, 216.445 289.558 C 217.456 294.950, 220.548 298, 225 298 C 227.961 298, 229.329 297.397, 230.901 295.399 C 236.848 287.839, 233.133 275, 225 275 C 223.595 275, 221.458 275.691, 220.251 276.537 M 478 275.709 C 475.363 276.679, 473 279.253, 473 281.155 C 473 282.794, 473.889 283, 480.948 283 L 488.896 283 487.898 280.138 C 486.531 276.215, 482.062 274.216, 478 275.709" stroke="none" fill="#f9f9fa" fill-rule="evenodd"/><path d="M 0 213.502 L 0 427.003 325.750 426.752 L 651.500 426.500 651.752 213.250 L 652.005 0 326.002 0 L 0 0 0 213.502 M 0.491 214 C 0.491 331.425, 0.607 379.462, 0.750 320.750 C 0.892 262.037, 0.892 165.962, 0.750 107.250 C 0.607 48.537, 0.491 96.575, 0.491 214 M 170.505 254.737 C 166.247 255.813, 160.338 260.963, 157.611 265.973 C 150.366 279.285, 154.907 296.831, 167.224 303.114 C 180.830 310.055, 196.870 303.376, 200.008 289.463 L 200.789 286 195.587 286 C 190.458 286, 190.360 286.057, 188.576 290.100 C 185.482 297.113, 175.931 299.102, 170.382 293.889 C 162.749 286.718, 163.717 268.783, 171.967 264.517 C 176.588 262.128, 182.334 262.569, 185.923 265.589 C 187.615 267.013, 189 268.813, 189 269.589 C 189 270.633, 190.432 271, 194.500 271 C 200.907 271, 201.426 269.851, 197.745 263.826 C 193.524 256.917, 187.464 253.922, 178.101 254.116 C 175.020 254.180, 171.602 254.459, 170.505 254.737 M 288.958 254.696 C 284.401 255.407, 280.933 259.077, 280.291 263.869 L 279.706 268.227 275.103 267.706 C 269.868 267.115, 265.345 268.640, 262.142 272.078 L 260 274.377 260 271.154 C 260 268.196, 259.775 267.969, 257.250 268.384 C 255.738 268.632, 253.477 268.873, 252.227 268.918 L 249.954 269 250.227 286.750 L 250.500 304.500 255.120 304.799 L 259.739 305.099 260.240 294.299 C 260.516 288.360, 261.079 282.696, 261.492 281.713 C 262.491 279.333, 267.174 277, 270.950 277 C 272.628 277, 274 276.550, 274 276 C 274 275.450, 275.350 275, 277 275 L 280 275 280 290 L 280 305 285 305 L 290 305 290 290 L 290 275 293.500 275 C 296.833 275, 297 274.833, 297 271.500 C 297 268.167, 296.833 268, 293.500 268 C 290.796 268, 290 267.590, 290 266.200 C 290 263.736, 291.942 262, 294.700 262 C 296.648 262, 297 261.481, 297 258.607 C 297 256.435, 296.431 254.995, 295.418 254.607 C 293.811 253.990, 293.452 253.995, 288.958 254.696 M 364 279.448 L 364 305 381.500 305 L 399 305 399 300 L 399 295 387.021 295 L 375.041 295 374.771 274.750 L 374.500 254.500 369.250 254.198 L 364 253.895 364 279.448 M 405 258.445 L 405 263 410.057 263 L 415.115 263 414.807 258.750 L 414.500 254.500 409.750 254.195 L 405 253.890 405 258.445 M 439.001 268.072 C 437.626 268.649, 435.488 270.072, 434.251 271.234 L 432 273.349 432 270.620 C 432 267.988, 431.831 267.901, 427.250 268.195 L 422.500 268.500 422.500 286.500 L 422.500 304.500 427.750 304.802 L 433 305.105 433 292.775 C 433 278.123, 433.878 276, 439.934 276 C 445.679 276, 446.268 277.377, 446.798 292.051 L 447.265 305 452.133 305 L 457 305 456.923 292.250 C 456.836 277.866, 455.657 272.580, 451.911 269.783 C 448.810 267.468, 442.452 266.625, 439.001 268.072 M 476.037 268.174 C 471.251 269.547, 467.276 272.571, 465.316 276.329 C 457.614 291.100, 467.324 307.278, 482.926 305.668 C 488.939 305.048, 492.344 303.014, 495.750 298.010 C 498.803 293.524, 498.625 293, 494.045 293 C 491.161 293, 489.415 293.676, 487.591 295.500 C 482.682 300.409, 473 297.546, 473 291.186 C 473 289.055, 473.313 289, 485.500 289 L 498 289 497.996 284.250 C 497.990 276.326, 493.065 270.045, 485.307 268.069 C 480.518 266.848, 480.664 266.846, 476.037 268.174 M 216.450 269.407 C 206.957 273.542, 203.439 286.891, 209.160 297.071 C 215.230 307.872, 233.524 308.205, 240.759 297.647 C 247.007 288.528, 243.039 273.421, 233.329 269.364 C 229.214 267.645, 220.445 267.667, 216.450 269.407 M 301 281.480 C 301 297.451, 302.271 301.952, 307.479 304.423 C 313.334 307.201, 319.887 306.184, 323.904 301.873 L 326 299.623 326 302.311 C 326 304.831, 326.283 305, 330.500 305 L 335 305 335 286.500 L 335 268 330 268 L 325 268 325 280.389 C 325 290.734, 324.711 293.120, 323.250 294.847 C 320.617 297.958, 316.827 298.489, 313.937 296.152 C 311.615 294.274, 311.485 293.566, 311.171 281.091 L 310.841 268 305.921 268 L 301 268 301 281.480 M 405 286.445 L 405 305 410.023 305 L 415.045 305 414.773 286.750 L 414.500 268.500 409.750 268.195 L 405 267.890 405 286.445 M 220.251 276.537 C 217.585 278.404, 215.616 285.140, 216.445 289.558 C 217.456 294.950, 220.548 298, 225 298 C 227.961 298, 229.329 297.397, 230.901 295.399 C 236.848 287.839, 233.133 275, 225 275 C 223.595 275, 221.458 275.691, 220.251 276.537 M 478 275.709 C 475.363 276.679, 473 279.253, 473 281.155 C 473 282.794, 473.889 283, 480.948 283 L 488.896 283 487.898 280.138 C 486.531 276.215, 482.062 274.216, 478 275.709" stroke="none" fill="#3a5396" fill-rule="evenodd"/></svg>