<?xml version="1.0" standalone="no"?>
<!DOCTYPE svg PUBLIC "-//W3C//DTD SVG 20010904//EN"
 "http://www.w3.org/TR/2001/REC-SVG-20010904/DTD/svg10.dtd">
<svg version="1.0" xmlns="http://www.w3.org/2000/svg"
 width="651.000000pt" height="427.000000pt" viewBox="0 0 651.000000 427.000000"
 preserveAspectRatio="xMidYMid meet">

<g transform="translate(0.000000,427.000000) scale(0.100000,-0.100000)"
fill="#000000" stroke="none">
<path d="M0 2135 l0 -2135 3255 0 3255 0 0 2135 0 2135 -3255 0 -3255 0 0
-2135z m3633 1240 c32 -8 73 -25 92 -38 48 -33 102 -104 120 -157 27 -82 107
-600 101 -654 -8 -68 -48 -147 -98 -192 -52 -46 -418 -227 -508 -250 -127 -32
-270 -6 -386 71 -63 41 -315 335 -348 405 -32 69 -30 198 6 265 14 28 42 66
61 85 29 29 613 377 747 446 68 34 132 40 213 19z m-1737 -1663 c57 -29 104
-93 104 -142 0 -17 -6 -20 -50 -20 -45 0 -52 3 -60 25 -26 67 -134 84 -191 29
-89 -85 -47 -285 62 -294 75 -7 121 21 134 81 6 28 9 29 62 29 l55 0 -7 -32
c-25 -115 -105 -178 -222 -178 -174 1 -285 173 -228 354 46 146 208 216 341
148z m1058 12 c10 -4 16 -18 16 -40 0 -29 -4 -34 -23 -34 -28 0 -47 -17 -47
-42 0 -14 8 -18 35 -18 33 0 35 -2 35 -35 0 -33 -2 -35 -35 -35 l-35 0 0 -150
0 -150 -50 0 -50 0 0 150 0 150 -30 0 c-16 0 -30 -4 -30 -10 0 -5 -14 -10 -30
-10 -38 0 -85 -23 -95 -47 -4 -10 -10 -66 -13 -125 l-5 -108 -48 0 -49 0 0
185 0 185 50 0 c50 0 50 0 50 -32 l0 -32 21 23 c32 35 78 50 130 44 l46 -5 6
43 c6 48 41 85 87 92 45 7 48 7 64 1z m794 -201 l2 -203 120 0 120 0 0 -50 0
-50 -175 0 -175 0 0 256 0 255 53 -3 52 -3 3 -202z m402 161 l0 -45 -52 3 -53
3 -3 43 -3 42 55 0 56 0 0 -46z m-1800 -113 c24 -12 44 -35 63 -72 91 -171
-74 -350 -249 -270 -96 44 -131 177 -73 280 47 84 164 112 259 62z m2168 2
c41 -30 51 -74 51 -221 l1 -133 -52 3 -53 3 -5 130 c-3 72 -9 136 -13 143 -13
19 -74 15 -97 -8 -18 -18 -20 -33 -20 -146 l0 -125 -52 3 -53 3 -3 183 -2 182
50 0 c43 0 50 -3 50 -20 0 -18 2 -18 38 6 30 21 45 25 85 21 27 -2 61 -13 75
-24z m369 6 c56 -27 93 -87 93 -152 l0 -47 -125 0 c-116 0 -125 -1 -125 -19 0
-30 32 -61 71 -67 28 -5 41 -1 66 20 34 28 113 38 113 14 0 -30 -43 -80 -83
-98 -92 -42 -197 -13 -243 66 -32 54 -37 150 -12 199 49 93 153 128 245 84z
m-1775 -120 c3 -125 4 -132 27 -151 29 -23 67 -18 94 14 14 17 17 41 17 144
l0 124 50 0 50 0 0 -185 0 -185 -45 0 c-42 0 -45 2 -45 27 l0 27 -21 -23 c-40
-43 -106 -53 -164 -25 -52 24 -65 69 -65 229 l0 135 49 0 49 0 4 -131z m1038
-54 l0 -185 -50 0 -50 0 -1 145 c-1 80 -2 160 -3 178 -3 45 -1 47 55 47 l49 0
0 -185z m-2164 -410 c6 -22 19 -64 27 -92 10 -33 12 -53 6 -53 -6 0 -13 9 -16
20 -4 16 -14 20 -45 20 -31 0 -41 -4 -45 -20 -3 -11 -9 -20 -14 -20 -12 0 -12
0 18 101 30 100 49 112 69 44z m184 -40 l0 -85 40 0 c22 0 40 -4 40 -10 0 -5
-22 -10 -50 -10 l-50 0 0 95 c0 57 4 95 10 95 6 0 10 -35 10 -85z m230 0 l0
-85 46 0 c27 0 43 -4 39 -10 -3 -5 -28 -10 -56 -10 l-49 0 0 95 c0 57 4 95 10
95 6 0 10 -35 10 -85z m435 45 c10 -22 21 -40 25 -40 4 0 15 18 25 40 10 22
22 40 27 40 12 0 10 -6 -17 -60 -14 -28 -25 -66 -25 -90 0 -22 -4 -40 -10 -40
-5 0 -10 16 -10 35 0 20 -14 62 -30 95 -22 43 -26 60 -17 60 8 0 22 -18 32
-40z m335 21 c16 -30 12 -123 -6 -149 -23 -33 -88 -31 -110 3 -19 29 -16 124
5 149 20 24 97 21 111 -3z m160 -50 c0 -93 4 -101 51 -101 l39 0 0 85 c0 72 3
85 16 85 14 0 16 -11 12 -81 -5 -92 -17 -109 -74 -109 -52 0 -64 20 -64 111 0
46 4 79 10 79 6 0 10 -30 10 -69z m503 -8 l36 -78 0 78 c1 44 5 77 11 77 6 0
10 -38 10 -95 0 -120 -13 -124 -63 -18 l-36 76 -3 -73 c-2 -48 -7 -75 -15 -78
-10 -3 -13 20 -13 92 0 87 2 96 19 96 13 0 28 -21 54 -77z m265 70 l-48 -4 0
-40 c0 -38 1 -39 38 -41 l37 -1 -37 -4 c-36 -4 -38 -6 -38 -39 0 -34 0 -34 45
-34 25 0 45 -4 45 -10 0 -5 -25 -10 -55 -10 l-55 0 0 95 0 95 58 -2 c56 -2 56
-2 10 -5z m239 0 l-48 -4 3 -37 c3 -34 6 -38 38 -43 l35 -6 -37 -2 c-36 -1
-38 -2 -38 -36 0 -35 0 -35 45 -35 25 0 45 -4 45 -10 0 -5 -25 -10 -55 -10
l-55 0 0 95 0 95 58 -2 57 -2 -48 -3z m291 -5 c7 -7 12 -40 12 -79 0 -59 -3
-70 -22 -83 -12 -9 -39 -16 -60 -16 l-38 0 0 95 0 95 48 0 c26 0 53 -5 60 -12z"/>
<path d="M3495 3321 c-16 -4 -46 -16 -65 -26 -92 -47 -688 -399 -709 -418 -13
-12 -35 -40 -49 -62 -23 -34 -27 -51 -27 -115 0 -95 10 -116 127 -256 144
-171 226 -248 295 -275 69 -27 202 -37 271 -19 69 17 421 191 465 230 44 38
72 88 81 145 5 27 -8 128 -39 315 -54 327 -56 335 -96 389 -49 69 -173 113
-254 92z"/>
<path d="M2210 1507 c-32 -16 -53 -78 -44 -131 13 -79 88 -113 139 -62 30 30
40 81 25 135 -9 34 -18 45 -45 57 -41 17 -43 17 -75 1z"/>
<path d="M4774 1506 c-26 -12 -44 -33 -44 -52 0 -2 34 -4 75 -4 79 0 94 11 58
42 -28 24 -55 28 -89 14z"/>
<path d="M1942 975 c-17 -63 -16 -65 19 -65 33 0 33 -3 5 78 l-12 33 -12 -46z"/>
<path d="M3070 1011 c-11 -22 -13 -83 -4 -118 5 -19 13 -23 44 -23 43 0 50 10
50 76 0 61 -14 84 -50 84 -19 0 -33 -7 -40 -19z"/>
<path d="M4540 949 l0 -80 38 3 37 3 3 63 c3 73 -7 92 -49 92 l-29 0 0 -81z"/>
</g>
</svg>
