<?xml version="1.0" encoding="UTF-8"?>
<svg version="1.1" xmlns="http://www.w3.org/2000/svg" width="651" height="427">
<path d="M0 0 C214.83 0 429.66 0 651 0 C651 140.91 651 281.82 651 427 C436.17 427 221.34 427 0 427 C0 286.09 0 145.18 0 0 Z " fill="#395295" transform="translate(0,0)"/>
<path d="M0 0 C9.95878081 7.74571841 12.97193827 17.9414348 14.953125 30.03125 C15.12503357 31.03982056 15.29694214 32.04839111 15.47406006 33.08752441 C15.83246099 35.21104481 16.18510485 37.33554422 16.53222656 39.4609375 C17.05709206 42.65459424 17.609312 45.84266629 18.1640625 49.03125 C19.75628677 58.441407 21.14479532 67.740722 21.203125 77.30078125 C21.21330658 78.36304932 21.21330658 78.36304932 21.22369385 79.44677734 C21.09132023 87.00744471 18.41560104 93.27662302 13.32055664 98.80688477 C7.72593959 104.16541665 1.10948757 107.44679467 -5.78442383 110.79467773 C-7.72852815 111.73956411 -9.66250381 112.70295305 -11.59570312 113.66992188 C-28.66450823 122.13214244 -45.08082294 129.48033702 -64.53125 125.50390625 C-67.21880958 124.57330013 -69.66473043 123.49802965 -72.1875 122.1875 C-73.0228125 121.775 -73.858125 121.3625 -74.71875 120.9375 C-84.38727266 115.685463 -91.37846833 107.49705718 -98.0390625 98.90625 C-101.05506663 95.08963386 -104.22958385 91.4127292 -107.41967773 87.7409668 C-114.78854133 79.15395501 -117.77148404 70.89535091 -117.01171875 59.56640625 C-115.49766898 49.76331631 -109.93436526 43.00863645 -102.1875 37.1875 C-98.6590742 34.90569116 -95.02854557 32.82403777 -91.375 30.75 C-90.33255127 30.15018311 -89.29010254 29.55036621 -88.21606445 28.93237305 C-86.0051518 27.66088013 -83.79246224 26.39247261 -81.578125 25.12695312 C-77.10317807 22.56726286 -72.64010142 19.98725791 -68.17700195 17.40698242 C-65.981621 16.1390992 -63.78484856 14.87362225 -61.58666992 13.6105957 C-56.59499962 10.74231821 -51.61597639 7.85854645 -46.67578125 4.90234375 C-45.82733643 4.39856201 -44.9788916 3.89478027 -44.10473633 3.37573242 C-42.56406616 2.45904846 -41.02817218 1.53425466 -39.4987793 0.59887695 C-25.73228945 -7.55565215 -13.74971343 -7.8184645 0 0 Z M-43.1875 10.1875 C-44.89570238 11.18994595 -46.60539187 12.18986127 -48.31640625 13.1875 C-51.99867902 15.34229166 -55.66914421 17.51554983 -59.33203125 19.703125 C-66.48659715 23.97182578 -73.68976131 28.15636376 -80.89282227 32.3425293 C-83.66036726 33.95302695 -86.42434544 35.56948373 -89.1875 37.1875 C-90.10088135 37.71762695 -91.0142627 38.24775391 -91.95532227 38.79394531 C-99.63165932 43.30371401 -107.11055705 48.16113246 -109.78515625 57.12890625 C-111.2899231 64.82805315 -110.24303654 71.43134481 -106.1875 78.1875 C-102.655917 82.81225422 -98.7043916 87.08271968 -94.79443359 91.38623047 C-92.53792125 93.91563613 -90.42871841 96.53949521 -88.3125 99.1875 C-86.94147258 100.8574361 -85.56691851 102.52448847 -84.1875 104.1875 C-83.65511719 104.84234375 -83.12273437 105.4971875 -82.57421875 106.171875 C-76.22560415 113.29240552 -65.5024313 118.71944312 -55.97265625 119.42578125 C-54.12994141 119.46251953 -54.12994141 119.46251953 -52.25 119.5 C-51.04472656 119.53738281 -49.83945312 119.57476562 -48.59765625 119.61328125 C-36.90087831 118.97406769 -26.18767505 113.05859814 -15.95507812 107.84228516 C-13.66881215 106.67798304 -11.37427709 105.5313808 -9.078125 104.38671875 C-7.60365525 103.64424391 -6.12967822 102.9007896 -4.65625 102.15625 C-3.97912964 101.81758911 -3.30200928 101.47892822 -2.60437012 101.13000488 C2.65439014 98.43508521 7.17914572 95.53525768 10.5625 90.625 C11.17351562 89.75681641 11.17351562 89.75681641 11.796875 88.87109375 C18.32337963 78.05215723 12.64217038 58.57990226 10.66918945 47.02197266 C10.1229449 43.80037962 9.6082941 40.57475501 9.09570312 37.34765625 C8.74927927 35.26531079 8.40103536 33.18326713 8.05078125 31.1015625 C7.90159744 30.15342682 7.75241364 29.20529114 7.59870911 28.22842407 C6.17262343 20.11933412 3.44263401 11.53438227 -3.1875 6.1875 C-3.826875 5.65125 -4.46625 5.115 -5.125 4.5625 C-10.99222033 0.65101978 -17.25211902 0.03131136 -24.18554688 0.78613281 C-31.10052049 2.17250069 -37.24077731 6.5948155 -43.1875 10.1875 Z " fill="#5790D1" transform="translate(374.1875,93.8125)"/>
<path d="M0 0 C4.49258429 3.36943822 8.09100788 7.36712172 9.5 12.875 C10.13833105 18.90494866 9.50619545 23.48458058 6.5 28.875 C2.78397755 33.29405372 -0.96661573 36.32630039 -6.7890625 37.23046875 C-13.37176454 37.60749658 -18.36917099 36.06343184 -23.5 31.875 C-27.94091843 26.37905675 -28.95981654 20.7722481 -28.5 13.875 C-27.1163952 7.31239739 -23.93649495 3.66089648 -18.5 -0.125 C-13.29268929 -2.72865535 -5.36527962 -1.72455416 0 0 Z " fill="#FBFBFC" transform="translate(234.5,269.125)"/>
<path d="M0 0 C3.42250328 2.95579829 6.01425835 5.92400399 8 10 C8 11.32 8 12.64 8 14 C4.29256567 14.2832505 0.69735243 14.45463741 -3 14 C-5 11.625 -5 11.625 -6 9 C-10.03832896 6.30778069 -13.25621714 6.21476632 -18 7 C-21.53835118 8.73931609 -23.57576163 11.17080682 -25.375 14.6875 C-26.71607474 21.7951961 -26.91657406 27.97078963 -23.1875 34.3671875 C-21.32590302 36.92688334 -20.02757082 37.99080973 -17 39 C-12.61485425 39.17289105 -9.16935537 38.83953719 -5.5625 36.25 C-3.65761411 33.68669793 -3.65761411 33.68669793 -2 29 C1.63 29 5.26 29 9 29 C7.71645309 35.20381008 6.41924689 40.48983859 1.03125 44.4453125 C-6.12662434 48.98381978 -11.42402437 49.85759756 -20 49 C-26.40776232 46.89243216 -31.42390859 42.68506839 -35 37 C-38.55764728 29.88470544 -39.36745149 21.92983792 -37.23828125 14.25390625 C-34.43578916 6.79905576 -30.9781193 2.07056959 -24 -2 C-16.36236537 -4.52923848 -6.88565002 -4.16008022 0 0 Z " fill="#FCFCFD" transform="translate(192,257)"/>
<path d="M0 0 C1.49080078 0.02707031 1.49080078 0.02707031 3.01171875 0.0546875 C3.77097656 0.07789063 4.53023438 0.10109375 5.3125 0.125 C5.3125 2.435 5.3125 4.745 5.3125 7.125 C3.3325 7.125 1.3525 7.125 -0.6875 7.125 C-1.0175 9.105 -1.3475 11.085 -1.6875 13.125 C0.6225 13.125 2.9325 13.125 5.3125 13.125 C5.3125 15.435 5.3125 17.745 5.3125 20.125 C3.0025 20.125 0.6925 20.125 -1.6875 20.125 C-1.6875 30.025 -1.6875 39.925 -1.6875 50.125 C-4.9875 50.125 -8.2875 50.125 -11.6875 50.125 C-11.6875 40.225 -11.6875 30.325 -11.6875 20.125 C-13.6675 20.125 -15.6475 20.125 -17.6875 20.125 C-17.6875 20.785 -17.6875 21.445 -17.6875 22.125 C-18.925 22.2075 -20.1625 22.29 -21.4375 22.375 C-24.44009699 22.75763183 -25.59722587 23.0601878 -28.125 24.875 C-31.43923567 29.64749936 -30.97900184 35.80873504 -31.25 41.4375 C-31.29318359 42.27345703 -31.33636719 43.10941406 -31.38085938 43.97070312 C-31.48635307 46.02196935 -31.58737315 48.0734648 -31.6875 50.125 C-34.9875 50.125 -38.2875 50.125 -41.6875 50.125 C-41.6875 37.915 -41.6875 25.705 -41.6875 13.125 C-38.3875 13.125 -35.0875 13.125 -31.6875 13.125 C-31.3575 14.775 -31.0275 16.425 -30.6875 18.125 C-29.965625 17.279375 -29.24375 16.43375 -28.5 15.5625 C-25.98880734 13.39788841 -24.77642081 13.12795348 -21.39453125 13.015625 C-18.13640568 13.28565504 -14.92034544 13.64055284 -11.6875 14.125 C-11.749375 13.073125 -11.81125 12.02125 -11.875 10.9375 C-11.67699851 6.91146977 -11.11268953 5.26876421 -8.6875 2.125 C-5.26655758 -0.15562828 -4.00562778 -0.09425007 0 0 Z " fill="#F9FAFC" transform="translate(291.6875,254.875)"/>
<path d="M0 0 C4.43884489 2.66330693 6.88811479 5.71372958 9.1875 10.3125 C9.1875 13.6125 9.1875 16.9125 9.1875 20.3125 C0.9375 20.3125 -7.3125 20.3125 -15.8125 20.3125 C-14.40878479 26.0143576 -14.40878479 26.0143576 -11.8125 28.3125 C-8.88821234 28.59549558 -6.65486127 28.80433716 -3.8125 28.3125 C-3.173125 27.6525 -2.53375 26.9925 -1.875 26.3125 C0.65334323 23.86077323 1.5143943 24.04120541 4.9375 24.0625 C6.35517057 24.12652383 7.77256449 24.20365881 9.1875 24.3125 C8.15144501 29.1474233 6.31824735 32.08422438 2.5078125 35.10546875 C-2.89791505 37.91753914 -9.43709437 38.18030933 -15.2890625 36.67578125 C-19.94787538 34.60810587 -22.39598042 31.85555681 -24.8125 27.3125 C-26.73953449 21.53139653 -26.92370688 14.62535041 -24.9765625 8.8203125 C-22.56412395 4.52973387 -19.58568269 1.86574676 -15.0625 -0.0703125 C-10.00939785 -1.45640649 -5.05617913 -1.2359549 0 0 Z " fill="#FAFBFC" transform="translate(488.8125,268.6875)"/>
<path d="M0 0 C3.3 0 6.6 0 10 0 C10.33 1.32 10.66 2.64 11 4 C11.433125 3.525625 11.86625 3.05125 12.3125 2.5625 C15.96754935 -0.82180495 20.6313412 -0.33323042 25.33203125 -0.27734375 C29.0279439 0.106858 30.65974851 1.13130463 33 4 C34.73719621 8.29671119 35.23928253 11.87533398 35.1953125 16.4921875 C35.18886719 17.69101562 35.18242187 18.88984375 35.17578125 20.125 C35.15902344 21.3625 35.14226562 22.6 35.125 23.875 C35.11597656 25.13570313 35.10695313 26.39640625 35.09765625 27.6953125 C35.07415808 30.7970704 35.04130334 33.89843652 35 37 C31.7 37 28.4 37 25 37 C24.95101563 35.39769531 24.90203125 33.79539062 24.8515625 32.14453125 C24.7765156 30.03383726 24.7009686 27.92316101 24.625 25.8125 C24.5940625 24.75740234 24.563125 23.70230469 24.53125 22.61523438 C24.49257813 21.59365234 24.45390625 20.57207031 24.4140625 19.51953125 C24.36693115 18.11344604 24.36693115 18.11344604 24.31884766 16.67895508 C23.97977169 13.83004192 23.17742543 11.60479556 22 9 C20.72125 8.938125 19.4425 8.87625 18.125 8.8125 C17.40570313 8.77769531 16.68640625 8.74289062 15.9453125 8.70703125 C14.98238281 8.85205078 14.98238281 8.85205078 14 9 C11.74129892 12.38805161 11.70740587 13.77350741 11.5859375 17.76171875 C11.52792969 19.43911133 11.52792969 19.43911133 11.46875 21.15039062 C11.4378125 22.31763672 11.406875 23.48488281 11.375 24.6875 C11.31699219 26.45577148 11.31699219 26.45577148 11.2578125 28.25976562 C11.16345943 31.17291668 11.08063758 34.08643703 11 37 C7.37 37 3.74 37 0 37 C0 24.79 0 12.58 0 0 Z " fill="#F3F4F8" transform="translate(422,268)"/>
<path d="M0 0 C3.3 0 6.6 0 10 0 C10.01401855 1.10456543 10.01401855 1.10456543 10.02832031 2.23144531 C10.08204155 5.57164218 10.16568622 8.91044119 10.25 12.25 C10.26417969 13.40886719 10.27835937 14.56773437 10.29296875 15.76171875 C10.32519531 16.87675781 10.35742188 17.99179687 10.390625 19.140625 C10.41157227 20.16704102 10.43251953 21.19345703 10.45410156 22.25097656 C11.13461644 25.67789851 12.23747585 26.91278732 15 29 C18.13362718 29.08892339 18.13362718 29.08892339 21 28 C23.25870108 24.61194839 23.29259413 23.22649259 23.4140625 19.23828125 C23.45273437 18.12001953 23.49140625 17.00175781 23.53125 15.84960938 C23.5621875 14.68236328 23.593125 13.51511719 23.625 12.3125 C23.66367187 11.13365234 23.70234375 9.95480469 23.7421875 8.74023438 C23.83654391 5.82698023 23.92213161 2.91373393 24 0 C27.3 0 30.6 0 34 0 C34 12.21 34 24.42 34 37 C31.03 37 28.06 37 25 37 C24.67 35.68 24.34 34.36 24 33 C23.401875 33.639375 22.80375 34.27875 22.1875 34.9375 C18.80856165 38.12335616 15.62543435 38.35731497 11.0625 38.2734375 C7.52857725 37.80492501 5.60429934 36.36203894 3 34 C-0.95619661 27.3565755 -0.34183439 20.60905604 -0.1875 13.0625 C-0.17396484 11.80630859 -0.16042969 10.55011719 -0.14648438 9.25585938 C-0.11128591 6.17012721 -0.06204305 3.08528976 0 0 Z " fill="#F8F9FB" transform="translate(301,268)"/>
<path d="M0 0 C3.63 0 7.26 0 11 0 C11 13.2 11 26.4 11 40 C18.92 40 26.84 40 35 40 C35 43.3 35 46.6 35 50 C23.45 50 11.9 50 0 50 C0 33.5 0 17 0 0 Z " fill="#F7F8FA" transform="translate(364,255)"/>
<path d="M0 0 C3.3 0 6.6 0 10 0 C10 11.88 10 23.76 10 36 C6.7 36 3.4 36 0 36 C0 24.12 0 12.24 0 0 Z " fill="#F8F9FB" transform="translate(405,269)"/>
<path d="M0 0 C3.85749863 0.9474558 5.18442733 1.76521267 7.5625 4.875 C9.16665783 9.68747349 9.13931817 13.48539259 7.1875 18.1875 C5.5625 20.875 5.5625 20.875 3.5625 22.875 C-3.44251139 23.66588838 -3.44251139 23.66588838 -6.875 20.9375 C-9.20831879 16.36419517 -10.18059641 11.87574811 -8.92578125 6.80859375 C-7.0372283 2.02226113 -5.35132137 -0.1945935 0 0 Z " fill="#355093" transform="translate(225.4375,275.125)"/>
<path d="M0 0 C3.3 0 6.6 0 10 0 C13 3 13 3 13.36328125 6.50390625 C13.36195611 7.85687608 13.3444913 9.2099078 13.3125 10.5625 C13.31572266 11.24763672 13.31894531 11.93277344 13.32226562 12.63867188 C13.26727586 17.73272414 13.26727586 17.73272414 11 20 C7.31975395 20.27629475 3.69505443 20.0859315 0 20 C0 13.4 0 6.8 0 0 Z " fill="#5287C9" transform="translate(451,322)"/>
<path d="M0 0 C2.3125 -0.3984375 2.3125 -0.3984375 5 -0.375 C6.3303125 -0.38660156 6.3303125 -0.38660156 7.6875 -0.3984375 C8.8321875 -0.20121094 8.8321875 -0.20121094 10 0 C12.37184142 3.55776212 12.29824394 5.28020607 12.3125 9.5 C12.32925781 10.6446875 12.34601563 11.789375 12.36328125 12.96875 C12 16 12 16 10.73046875 17.87890625 C8.66850276 19.21476232 7.44631516 19.43286683 5 19.4375 C4.319375 19.45683594 3.63875 19.47617187 2.9375 19.49609375 C1 19 1 19 -0.73046875 17.3515625 C-2.33611595 14.37740984 -2.36672082 12.3033618 -2.3125 8.9375 C-2.30863281 7.89464844 -2.30476563 6.85179687 -2.30078125 5.77734375 C-2 3 -2 3 0 0 Z " fill="#548CCE" transform="translate(306,323)"/>
<path d="M0 0 C0.99 0 1.98 0 3 0 C4.98 4.29 6.96 8.58 9 13 C9.33 8.71 9.66 4.42 10 0 C10.99 0.33 11.98 0.66 13 1 C13 7.27 13 13.54 13 20 C11.35 19.67 9.7 19.34 8 19 C5.79710417 15.51344142 4.54733737 11.8462386 3 8 C2.67 11.96 2.34 15.92 2 20 C1.01 20 0.02 20 -1 20 C-1.02888514 16.85418577 -1.04675923 13.70840531 -1.0625 10.5625 C-1.07087891 9.66466797 -1.07925781 8.76683594 -1.08789062 7.84179688 C-1.09111328 6.98779297 -1.09433594 6.13378906 -1.09765625 5.25390625 C-1.10551147 4.06776733 -1.10551147 4.06776733 -1.11352539 2.85766602 C-1 1 -1 1 0 0 Z " fill="#558DCE" transform="translate(377,322)"/>
<path d="M0 0 C1.90722656 0.27954102 1.90722656 0.27954102 4 1 C5.13246021 3.69108307 5.9823778 6.14461043 6.75 8.9375 C6.97042969 9.67935547 7.19085938 10.42121094 7.41796875 11.18554688 C9 16.60474088 9 16.60474088 9 19 C8.01 18.67 7.02 18.34 6 18 C6 17.01 6 16.02 6 15 C3.36 15 0.72 15 -2 15 C-2.33 16.32 -2.66 17.64 -3 19 C-3.66 19 -4.32 19 -5 19 C-4.39297368 12.3227105 -2.22368606 6.29872004 0 0 Z " fill="#5690D1" transform="translate(194,323)"/>
<path d="M0 0 C3.63 0 7.26 0 11 0 C11.33 0.99 11.66 1.98 12 3 C9.03 3 6.06 3 3 3 C3 4.98 3 6.96 3 9 C4.98 9 6.96 9 9 9 C9.33 9.99 9.66 10.98 10 12 C7.69 12 5.38 12 3 12 C3 13.98 3 15.96 3 18 C5.97 18 8.94 18 12 18 C12 18.66 12 19.32 12 20 C8.04 20 4.08 20 0 20 C0 13.4 0 6.8 0 0 Z " fill="#5388CA" transform="translate(427,322)"/>
<path d="M0 0 C2.64 0 5.28 0 8 0 C8 4.95 8 9.9 8 15 C5.69 15 3.38 15 1 15 C0 14 0 14 -0.09765625 10.83984375 C-0.08025391 8.90818359 -0.08025391 8.90818359 -0.0625 6.9375 C-0.05347656 5.64714844 -0.04445313 4.35679687 -0.03515625 3.02734375 C-0.02355469 2.02832031 -0.01195312 1.02929688 0 0 Z " fill="#354F94" transform="translate(307,325)"/>
<path d="M0 0 C2.31 0 4.62 0 7 0 C8.80746134 1.80746134 8.17303483 4.50445781 8.1875 6.9375 C8.20167969 8.01902344 8.21585937 9.10054688 8.23046875 10.21484375 C8 13 8 13 6 15 C4.02 15 2.04 15 0 15 C0 10.05 0 5.1 0 0 Z " fill="#3B5497" transform="translate(454,325)"/>
<path d="M0 0 C0.66 0 1.32 0 2 0 C2.33 5.61 2.66 11.22 3 17 C6.465 16.505 6.465 16.505 10 16 C10.33 10.72 10.66 5.44 11 0 C11.99 0 12.98 0 14 0 C14.08117951 2.41734542 14.14056926 4.83194949 14.1875 7.25 C14.22520508 8.27287109 14.22520508 8.27287109 14.26367188 9.31640625 C14.30899782 12.42878784 14.17114906 14.66670972 12.73828125 17.45703125 C10.66181051 19.30019067 9.74451152 19.51546908 7 19.4375 C5.9790625 19.43556641 5.9790625 19.43556641 4.9375 19.43359375 C2.266602 18.83587262 1.48440941 18.33461294 0 16 C-0.21714241 13.18872957 -0.28284276 10.6116655 -0.1875 7.8125 C-0.17396484 7.06291016 -0.16042969 6.31332031 -0.14648438 5.54101562 C-0.11118539 3.69370233 -0.05737917 1.84675934 0 0 Z " fill="#5792D3" transform="translate(331,323)"/>
<path d="M0 0 C3.4397297 2.53453767 3.9396658 3.75866318 5 8 C-0.28 8 -5.56 8 -11 8 C-10 3 -10 3 -8.875 1.1875 C-5.84814901 -0.72950563 -3.4846244 -0.42793633 0 0 Z " fill="#4C639F" transform="translate(484,275)"/>
<path d="M0 0 C3.63 0 7.26 0 11 0 C11 0.99 11 1.98 11 3 C8.03 3 5.06 3 2 3 C2 4.98 2 6.96 2 9 C4.31 9 6.62 9 9 9 C9 9.66 9 10.32 9 11 C6.69 11 4.38 11 2 11 C2 13.31 2 15.62 2 18 C4.97 18 7.94 18 11 18 C11 18.66 11 19.32 11 20 C7.37 20 3.74 20 0 20 C0 13.4 0 6.8 0 0 Z " fill="#548BCD" transform="translate(403,322)"/>
<path d="M0 0 C3.3 0 6.6 0 10 0 C10 2.64 10 5.28 10 8 C6.7 8 3.4 8 0 8 C0 5.36 0 2.72 0 0 Z " fill="#F4F6F9" transform="translate(405,255)"/>
<path d="M0 0 C0.99 0 1.98 0 3 0 C3 5.61 3 11.22 3 17 C5.64 17 8.28 17 11 17 C11 17.66 11 18.32 11 19 C7.37 19 3.74 19 0 19 C0 12.73 0 6.46 0 0 Z " fill="#558ECF" transform="translate(238,323)"/>
<path d="M0 0 C0.66 0 1.32 0 2 0 C1.07597272 3.05639793 0.23325755 5.65477883 -1.5625 8.3125 C-3.58090384 12.08603761 -3.73320731 15.77731573 -4 20 C-4.66 20 -5.32 20 -6 20 C-6.14695312 19.07380859 -6.14695312 19.07380859 -6.296875 18.12890625 C-7.39058626 11.93435198 -9.20029639 6.62658881 -12 1 C-11.01 1 -10.02 1 -9 1 C-6 6.75 -6 6.75 -6 9 C-5.34 9 -4.68 9 -4 9 C-3.71125 8.071875 -3.4225 7.14375 -3.125 6.1875 C-2 3 -2 3 0 0 Z " fill="#5691D2" transform="translate(291,322)"/>
<path d="M0 0 C2.64 0 5.28 0 8 0 C8 0.33 8 0.66 8 1 C6.02 1 4.04 1 2 1 C2 6.28 2 11.56 2 17 C3.98 17 5.96 17 8 17 C8 17.66 8 18.32 8 19 C5.36 19 2.72 19 0 19 C0 12.73 0 6.46 0 0 Z " fill="#5893D4" transform="translate(452,323)"/>
<path d="M0 0 C0.66 0 1.32 0 2 0 C2 5.61 2 11.22 2 17 C4.64 17 7.28 17 10 17 C10 17.66 10 18.32 10 19 C6.7 19 3.4 19 0 19 C0 12.73 0 6.46 0 0 Z " fill="#5893D4" transform="translate(215,323)"/>
<path d="M0 0 C2.95183101 2.95183101 3.08663988 5.95511947 4 10 C2.02 10 0.04 10 -2 10 C-1.34 6.7 -0.68 3.4 0 0 Z " fill="#324F95" transform="translate(195,326)"/>
</svg>
